<svg width="24" height="20" viewBox="0 0 24 20" fill="none" xmlns="http://www.w3.org/2000/svg">
<path fill-rule="evenodd" clip-rule="evenodd" d="M6.66925 1.07054C10.2644 0.799621 13.8756 0.817455 17.4679 1.12387L19.6333 1.30787C20.4276 1.37581 21.1761 1.70882 21.7584 2.25339C22.3407 2.79797 22.723 3.52249 22.8439 4.31054L22.9799 5.20254C23.4435 8.22636 23.4002 11.3063 22.8519 14.3159C22.7208 15.0354 22.3414 15.6862 21.7798 16.1547C21.2182 16.6232 20.51 16.8799 19.7786 16.8799H7.81059C7.53458 16.8799 7.26392 16.9479 7.02125 17.0785L1.80659 19.8812C1.6542 19.9631 1.48319 20.004 1.31025 20.0001C1.1373 19.9961 0.968353 19.9473 0.819899 19.8585C0.671445 19.7697 0.548566 19.6439 0.463269 19.4934C0.377972 19.3429 0.333174 19.1729 0.333252 18.9999V7.64387C0.333595 5.98638 0.960093 4.3902 2.08728 3.175C3.21447 1.95979 4.75913 1.21527 6.41192 1.09054L6.66925 1.07054ZM6.66659 7.66654C6.22456 7.66654 5.80063 7.84213 5.48807 8.1547C5.17551 8.46726 4.99992 8.89118 4.99992 9.33321C4.99992 9.77523 5.17551 10.1992 5.48807 10.5117C5.80063 10.8243 6.22456 10.9999 6.66659 10.9999C7.10861 10.9999 7.53254 10.8243 7.8451 10.5117C8.15766 10.1992 8.33325 9.77523 8.33325 9.33321C8.33325 8.89118 8.15766 8.46726 7.8451 8.1547C7.53254 7.84213 7.10861 7.66654 6.66659 7.66654ZM11.9999 7.66654C11.5579 7.66654 11.134 7.84213 10.8214 8.1547C10.5088 8.46726 10.3333 8.89118 10.3333 9.33321C10.3333 9.77523 10.5088 10.1992 10.8214 10.5117C11.134 10.8243 11.5579 10.9999 11.9999 10.9999C12.4419 10.9999 12.8659 10.8243 13.1784 10.5117C13.491 10.1992 13.6666 9.77523 13.6666 9.33321C13.6666 8.89118 13.491 8.46726 13.1784 8.1547C12.8659 7.84213 12.4419 7.66654 11.9999 7.66654ZM15.6666 9.33321C15.6666 8.89118 15.8422 8.46726 16.1547 8.1547C16.4673 7.84213 16.8912 7.66654 17.3333 7.66654C17.7753 7.66654 18.1992 7.84213 18.5118 8.1547C18.8243 8.46726 18.9999 8.89118 18.9999 9.33321C18.9999 9.77523 18.8243 10.1992 18.5118 10.5117C18.1992 10.8243 17.7753 10.9999 17.3333 10.9999C16.8912 10.9999 16.4673 10.8243 16.1547 10.5117C15.8422 10.1992 15.6666 9.77523 15.6666 9.33321Z" fill="#CCCCCC"/>
</svg>
