<svg width="31" height="31" viewBox="0 0 31 31" fill="none" xmlns="http://www.w3.org/2000/svg">
<path d="M15.7501 8.81125C15.7501 7.47588 15.2196 6.19521 14.2754 5.25096C13.3311 4.30672 12.0505 3.77625 10.7151 3.77625H3.1626V22.6575H11.9738C12.9754 22.6575 13.9359 23.0553 14.6441 23.7635C15.3522 24.4717 15.7501 25.4322 15.7501 26.4337M15.7501 8.81125V26.4337M15.7501 8.81125C15.7501 7.47588 16.2806 6.19521 17.2248 5.25096C18.1691 4.30672 19.4497 3.77625 20.7851 3.77625H28.3376V22.6575H19.5263C18.5248 22.6575 17.5643 23.0553 16.8561 23.7635C16.148 24.4717 15.7501 25.4322 15.7501 26.4337" stroke="#CCD1D6" stroke-width="2" stroke-linecap="round" stroke-linejoin="round"/>
</svg>
