<svg width="20" height="30" viewBox="0 0 20 30" fill="none" xmlns="http://www.w3.org/2000/svg">
<path d="M16.9565 23.5809H3.04348C2.92817 23.5809 2.81758 23.6267 2.73604 23.7083C2.6545 23.7898 2.6087 23.9004 2.6087 24.0157C2.6087 24.131 2.6545 24.2416 2.73604 24.3231C2.81758 24.4047 2.92817 24.4505 3.04348 24.4505H16.9565C17.0718 24.4505 17.1824 24.4047 17.264 24.3231C17.3455 24.2416 17.3913 24.131 17.3913 24.0157C17.3913 23.9004 17.3455 23.7898 17.264 23.7083C17.1824 23.6267 17.0718 23.5809 16.9565 23.5809ZM4.77971 18.3635C4.6644 18.3635 4.55381 18.4093 4.47227 18.4909C4.39073 18.5724 4.34493 18.683 4.34493 18.7983C4.34493 18.9136 4.39073 19.0242 4.47227 19.1058C4.55381 19.1873 4.6644 19.2331 4.77971 19.2331H4.78551C4.84245 19.233 4.89883 19.2217 4.95139 19.1998C5.00395 19.1779 5.05167 19.1459 5.0918 19.1055C5.13194 19.0651 5.16369 19.0171 5.18524 18.9644C5.20679 18.9117 5.21772 18.8553 5.21739 18.7983C5.21675 18.6827 5.17034 18.572 5.08831 18.4906C5.00629 18.4091 4.89533 18.3634 4.77971 18.3635ZM8.25797 18.3635C8.14266 18.3635 8.03207 18.4093 7.95053 18.4909C7.869 18.5724 7.82319 18.683 7.82319 18.7983C7.82319 18.9136 7.869 19.0242 7.95053 19.1058C8.03207 19.1873 8.14266 19.2331 8.25797 19.2331H8.26377C8.32071 19.233 8.37709 19.2217 8.42965 19.1998C8.48222 19.1779 8.52993 19.1459 8.57006 19.1055C8.6102 19.0651 8.64195 19.0171 8.6635 18.9644C8.68505 18.9117 8.69598 18.8553 8.69565 18.7983C8.69501 18.6827 8.6486 18.572 8.56657 18.4906C8.48455 18.4091 8.37359 18.3634 8.25797 18.3635ZM6.51884 18.3635C6.40353 18.3635 6.29294 18.4093 6.2114 18.4909C6.12987 18.5724 6.08406 18.683 6.08406 18.7983C6.08406 18.9136 6.12987 19.0242 6.2114 19.1058C6.29294 19.1873 6.40353 19.2331 6.51884 19.2331H6.52464C6.58158 19.233 6.63796 19.2217 6.69052 19.1998C6.74308 19.1779 6.7908 19.1459 6.83093 19.1055C6.87107 19.0651 6.90282 19.0171 6.92437 18.9644C6.94592 18.9117 6.95685 18.8553 6.95652 18.7983C6.95588 18.6827 6.90947 18.572 6.82744 18.4906C6.74542 18.4091 6.63446 18.3634 6.51884 18.3635ZM6.51884 20.9722C6.46189 20.9723 6.40552 20.9836 6.35296 21.0055C6.30039 21.0274 6.25268 21.0595 6.21254 21.0999C6.17241 21.1403 6.14066 21.1882 6.11911 21.2409C6.09755 21.2936 6.08663 21.3501 6.08696 21.407C6.08667 21.4933 6.11198 21.5777 6.15967 21.6496C6.20737 21.7215 6.27531 21.7776 6.35491 21.8109C6.43451 21.8442 6.52219 21.8531 6.60687 21.8366C6.69155 21.82 6.76941 21.7787 6.83062 21.7179C6.89183 21.6571 6.93364 21.5795 6.95075 21.495C6.96786 21.4104 6.95952 21.3227 6.92676 21.2429C6.89401 21.163 6.83833 21.0947 6.76675 21.0466C6.69517 20.9984 6.61092 20.9725 6.52464 20.9722H6.51884ZM4.77971 20.9722C4.72276 20.9723 4.66639 20.9836 4.61383 21.0055C4.56126 21.0274 4.51355 21.0595 4.47341 21.0999C4.43328 21.1403 4.40153 21.1882 4.37998 21.2409C4.35842 21.2936 4.3475 21.3501 4.34783 21.407C4.34754 21.4933 4.37284 21.5777 4.42054 21.6496C4.46824 21.7215 4.53618 21.7776 4.61578 21.8109C4.69538 21.8442 4.78306 21.8531 4.86774 21.8366C4.95241 21.82 5.03028 21.7787 5.09149 21.7179C5.1527 21.6571 5.19451 21.5795 5.21162 21.495C5.22873 21.4104 5.22039 21.3227 5.18763 21.2429C5.15488 21.163 5.0992 21.0947 5.02762 21.0466C4.95604 20.9984 4.87179 20.9725 4.78551 20.9722H4.77971ZM3.04348 20.5396C3.15879 20.5396 3.26938 20.4938 3.35092 20.4123C3.43245 20.3308 3.47826 20.2202 3.47826 20.1049V20.1005C3.4774 20.0147 3.45118 19.9311 3.40288 19.8602C3.35459 19.7892 3.28639 19.7342 3.20687 19.7019C3.12735 19.6697 3.04007 19.6617 2.95602 19.679C2.87197 19.6962 2.79491 19.738 2.73454 19.799C2.67417 19.8599 2.63319 19.9374 2.61676 20.0216C2.60033 20.1058 2.60919 20.193 2.64222 20.2722C2.67526 20.3514 2.73098 20.4191 2.80238 20.4667C2.87379 20.5143 2.95767 20.5396 3.04348 20.5396ZM16.9565 26.1896H3.04348C2.92817 26.1896 2.81758 26.2354 2.73604 26.317C2.6545 26.3985 2.6087 26.5091 2.6087 26.6244C2.6087 26.7397 2.6545 26.8503 2.73604 26.9318C2.81758 27.0134 2.92817 27.0592 3.04348 27.0592H16.9565C17.0718 27.0592 17.1824 27.0134 17.264 26.9318C17.3455 26.8503 17.3913 26.7397 17.3913 26.6244C17.3913 26.5091 17.3455 26.3985 17.264 26.317C17.1824 26.2354 17.0718 26.1896 16.9565 26.1896ZM18.6957 5.20411H15.6533L15.6522 3.73959C15.6522 3.60918 15.6238 3.48034 15.569 3.362C15.5142 3.24367 15.4343 3.13868 15.3348 3.05433C15.2354 2.96998 15.1188 2.90829 14.9931 2.87354C14.8674 2.83879 14.7356 2.83181 14.607 2.8531L13.0435 3.11182V0.898489C13.0435 0.748545 13.0059 0.600988 12.9343 0.469263C12.8627 0.337538 12.7592 0.225835 12.6333 0.144332C12.5075 0.0628286 12.3632 0.0141177 12.2137 0.00263763C12.0642 -0.0088424 11.9142 0.0172735 11.7774 0.0786055L0.265971 5.23814L0.264522 5.23872L0.256985 5.2422C0.254783 5.24313 0.252869 5.24434 0.250724 5.24533C0.240779 5.24994 0.231013 5.25493 0.221449 5.26029C0.200682 5.27193 0.18094 5.28531 0.162435 5.30029C0.159425 5.30272 0.156449 5.30519 0.153507 5.30771C0.149411 5.31119 0.145372 5.31472 0.141391 5.31832C0.130931 5.32793 0.120929 5.33802 0.11142 5.34858L0.103304 5.35785C0.0969698 5.36533 0.0908988 5.37302 0.0851016 5.38092C0.0769824 5.392 0.0693611 5.40343 0.0622607 5.41518C0.0500239 5.43547 0.0395135 5.45674 0.0308404 5.47878L0.0267825 5.48921C0.0233012 5.49876 0.0201499 5.50843 0.0173335 5.5182C0.0162901 5.52183 0.0152851 5.52548 0.0143189 5.52916C0.010718 5.54289 0.00781566 5.55681 0.0056232 5.57084C0.00469566 5.57652 0.00390337 5.58222 0.00324636 5.58794C0.00278259 5.59176 0.00231864 5.59559 0.00197082 5.59947C0.00102347 5.61019 0.000482026 5.62095 0.000347635 5.63171C0.000347635 5.63414 0 5.63646 0 5.6389V28.3635C0.000398914 28.7093 0.137949 29.0409 0.382475 29.2854C0.627001 29.5299 0.958536 29.6675 1.30435 29.6679H18.6957C19.0415 29.6675 19.373 29.5299 19.6175 29.2854C19.8621 29.0409 19.9996 28.7093 20 28.3635V6.50846C19.9996 6.16265 19.8621 5.83111 19.6175 5.58659C19.373 5.34206 19.0415 5.20451 18.6957 5.20411ZM14.7489 3.71101C14.7531 3.71015 14.7573 3.71029 14.7614 3.71141C14.7655 3.71253 14.7692 3.7146 14.7723 3.71745C14.7757 3.72012 14.7784 3.72355 14.7802 3.72746C14.782 3.73137 14.7828 3.73565 14.7826 3.73994L14.7838 5.20411H5.72562L14.7489 3.71101ZM12.133 0.872055C12.1375 0.870069 12.1423 0.869221 12.1471 0.869591C12.152 0.86996 12.1566 0.871535 12.1607 0.87417C12.1648 0.876805 12.1681 0.880417 12.1704 0.884675C12.1727 0.888934 12.1739 0.893703 12.1739 0.898547V3.25571L3.67855 4.6615L12.133 0.872055ZM19.1304 28.3635C19.1303 28.4788 19.0845 28.5893 19.003 28.6708C18.9214 28.7523 18.8109 28.7982 18.6957 28.7983H1.30435C1.18907 28.7982 1.07856 28.7523 0.997046 28.6708C0.915535 28.5893 0.869688 28.4788 0.869565 28.3635V6.07368H18.6957C18.8109 6.0738 18.9214 6.11965 19.003 6.20116C19.0845 6.28267 19.1303 6.39319 19.1304 6.50846V28.3635ZM16.9565 7.81281H3.04348C2.92817 7.81281 2.81758 7.85862 2.73604 7.94015C2.6545 8.02169 2.6087 8.13228 2.6087 8.24759V16.1895C2.6087 16.2039 2.60945 16.2183 2.61084 16.2326C2.61142 16.2388 2.61264 16.2448 2.61351 16.251C2.61467 16.2588 2.61559 16.2668 2.61716 16.2747C2.61855 16.2818 2.62052 16.2887 2.62226 16.2958C2.624 16.3025 2.62545 16.3092 2.62748 16.3159C2.62957 16.3228 2.63217 16.3296 2.63461 16.3363C2.63693 16.3429 2.63913 16.3496 2.64186 16.3561C2.64446 16.3624 2.64754 16.3685 2.65049 16.3747C2.65362 16.3813 2.65658 16.3881 2.66006 16.3946C2.6633 16.4006 2.66696 16.4063 2.67043 16.4121C2.6742 16.4184 2.6778 16.4248 2.68191 16.431C2.6862 16.4374 2.69101 16.4435 2.69565 16.4497C2.69954 16.4549 2.70313 16.4602 2.70725 16.4652C2.71583 16.4756 2.72489 16.4857 2.73444 16.4953L2.73606 16.497C2.7367 16.4977 2.73745 16.4983 2.73809 16.499C2.74765 16.5083 2.75757 16.5174 2.76788 16.5259C2.77287 16.5299 2.77809 16.5334 2.78313 16.5373C2.78945 16.542 2.79559 16.5468 2.80215 16.5512C2.80806 16.5552 2.81432 16.5586 2.82035 16.5623C2.82638 16.5659 2.83241 16.5698 2.83867 16.5731C2.84487 16.5764 2.85119 16.5792 2.85751 16.5821C2.86406 16.5853 2.87055 16.5885 2.87722 16.5914C2.88325 16.5939 2.88939 16.5958 2.89548 16.598C2.90278 16.6006 2.90997 16.6034 2.91751 16.6057C2.9233 16.6075 2.92928 16.6087 2.93513 16.6103C2.94301 16.6123 2.95078 16.6144 2.95884 16.6161C2.96522 16.6173 2.97159 16.618 2.97797 16.619C2.98562 16.6201 2.99316 16.6215 3.00087 16.6223C3.01159 16.6233 3.02238 16.6236 3.03316 16.6239C3.03664 16.6239 3.04 16.6244 3.04348 16.6244H16.9565C17.0718 16.6244 17.1824 16.5786 17.264 16.4971C17.3455 16.4155 17.3913 16.3049 17.3913 16.1896V8.24759C17.3913 8.13228 17.3455 8.02169 17.264 7.94015C17.1824 7.85862 17.0718 7.81281 16.9565 7.81281ZM4.09316 15.7548L7.57774 12.2702L10.7911 15.4836L10.7912 15.4838L10.7914 15.4839L11.0623 15.7548H4.09316ZM12.2921 15.7548L11.7136 15.1763L13.5628 13.327L15.9907 15.7548H12.2921ZM16.5217 15.0561L13.8703 12.4046C13.7888 12.3231 13.6782 12.2773 13.5628 12.2773C13.4475 12.2773 13.3369 12.3231 13.2554 12.4046L11.0987 14.5614L7.88516 11.3479C7.80361 11.2664 7.69303 11.2206 7.57774 11.2206C7.46245 11.2206 7.35187 11.2664 7.27032 11.3479L3.47826 15.1399V8.68237H16.5217V15.0561ZM3.04348 19.2345C3.15911 19.2343 3.26995 19.1883 3.35172 19.1065C3.43349 19.0248 3.47951 18.9139 3.47971 18.7983C3.47958 18.7122 3.45395 18.6281 3.40605 18.5566C3.35814 18.4851 3.29012 18.4293 3.21057 18.3965C3.13101 18.3636 3.04349 18.355 2.95907 18.3718C2.87465 18.3886 2.7971 18.4301 2.73622 18.491C2.67535 18.5518 2.63388 18.6294 2.61705 18.7138C2.60021 18.7982 2.60878 18.8857 2.64165 18.9653C2.67453 19.0448 2.73024 19.1129 2.80176 19.1608C2.87328 19.2087 2.95739 19.2343 3.04348 19.2345ZM3.04638 21.8418C3.13244 21.8414 3.21645 21.8154 3.28778 21.7673C3.35912 21.7191 3.4146 21.6509 3.4472 21.5713C3.4798 21.4916 3.48807 21.4041 3.47096 21.3198C3.45385 21.2354 3.41214 21.158 3.35108 21.0974C3.29002 21.0367 3.21236 20.9955 3.1279 20.979C3.04344 20.9624 2.95597 20.9713 2.87654 21.0044C2.7971 21.0375 2.72927 21.0935 2.6816 21.1651C2.63393 21.2368 2.60856 21.3209 2.6087 21.407C2.60853 21.4644 2.61976 21.5212 2.64174 21.5743C2.66371 21.6273 2.69599 21.6754 2.7367 21.7158C2.77742 21.7563 2.82575 21.7882 2.87891 21.8099C2.93207 21.8315 2.98899 21.8423 3.04638 21.8418ZM8.25797 20.9722C8.20103 20.9723 8.14465 20.9836 8.09209 21.0055C8.03952 21.0274 7.99181 21.0595 7.95167 21.0999C7.91154 21.1403 7.87979 21.1882 7.85824 21.2409C7.83668 21.2936 7.82576 21.3501 7.82609 21.407C7.8258 21.4933 7.85111 21.5777 7.8988 21.6496C7.9465 21.7215 8.01444 21.7776 8.09404 21.8109C8.17364 21.8442 8.26132 21.8531 8.346 21.8366C8.43068 21.82 8.50854 21.7787 8.56975 21.7179C8.63096 21.6571 8.67277 21.5795 8.68988 21.495C8.70699 21.4104 8.69865 21.3227 8.6659 21.2429C8.63314 21.163 8.57746 21.0947 8.50588 21.0466C8.4343 20.9984 8.35005 20.9725 8.26377 20.9722H8.25797ZM15.2145 20.9722C15.1575 20.9723 15.1012 20.9836 15.0486 21.0055C14.996 21.0274 14.9483 21.0595 14.9082 21.0999C14.8681 21.1403 14.8363 21.1882 14.8148 21.2409C14.7932 21.2936 14.7823 21.3501 14.7826 21.407C14.7823 21.4933 14.8076 21.5777 14.8553 21.6496C14.903 21.7215 14.971 21.7776 15.0506 21.8109C15.1302 21.8442 15.2178 21.8531 15.3025 21.8366C15.3872 21.82 15.4651 21.7787 15.5263 21.7179C15.5875 21.6571 15.6293 21.5795 15.6464 21.495C15.6635 21.4104 15.6552 21.3227 15.6224 21.2429C15.5897 21.163 15.534 21.0947 15.4624 21.0466C15.3908 20.9984 15.3066 20.9725 15.2203 20.9722H15.2145ZM15.2145 18.3635C15.0992 18.3635 14.9886 18.4093 14.9071 18.4909C14.8255 18.5724 14.7797 18.683 14.7797 18.7983C14.7797 18.9136 14.8255 19.0242 14.9071 19.1058C14.9886 19.1873 15.0992 19.2331 15.2145 19.2331H15.2203C15.2772 19.233 15.3336 19.2217 15.3862 19.1998C15.4387 19.1779 15.4865 19.1459 15.5266 19.1055C15.5667 19.0651 15.5985 19.0171 15.62 18.9644C15.6416 18.9117 15.6525 18.8553 15.6522 18.7983C15.6515 18.6827 15.6051 18.572 15.5231 18.4906C15.4411 18.4091 15.3301 18.3634 15.2145 18.3635ZM16.9536 18.3635C16.8676 18.364 16.7836 18.3899 16.7122 18.438C16.6409 18.4862 16.5854 18.5544 16.5528 18.634C16.5202 18.7137 16.5119 18.8012 16.529 18.8856C16.5461 18.9699 16.5879 19.0473 16.6489 19.108C16.71 19.1686 16.7876 19.2098 16.8721 19.2264C16.9566 19.2429 17.044 19.2341 17.1235 19.2009C17.2029 19.1678 17.2707 19.1119 17.3184 19.0402C17.3661 18.9686 17.3914 18.8844 17.3913 18.7983C17.3915 18.7409 17.3803 18.6841 17.3583 18.6311C17.3363 18.578 17.304 18.5299 17.2633 18.4895C17.2226 18.449 17.1743 18.4171 17.1211 18.3954C17.0679 18.3738 17.011 18.363 16.9536 18.3635ZM13.4754 20.9722C13.4184 20.9723 13.362 20.9836 13.3095 21.0055C13.2569 21.0274 13.2092 21.0595 13.1691 21.0999C13.1289 21.1403 13.0972 21.1882 13.0756 21.2409C13.0541 21.2936 13.0432 21.3501 13.0435 21.407C13.0432 21.4933 13.0685 21.5777 13.1162 21.6496C13.1639 21.7215 13.2318 21.7776 13.3114 21.8109C13.391 21.8442 13.4787 21.8531 13.5634 21.8366C13.6481 21.82 13.7259 21.7787 13.7871 21.7179C13.8484 21.6571 13.8902 21.5795 13.9073 21.495C13.9244 21.4104 13.916 21.3227 13.8833 21.2429C13.8505 21.163 13.7948 21.0947 13.7233 21.0466C13.6517 20.9984 13.5674 20.9725 13.4812 20.9722H13.4754ZM16.9565 19.6657C16.8412 19.6657 16.7306 19.7115 16.6491 19.793C16.5675 19.8746 16.5217 19.9851 16.5217 20.1005V20.1048C16.5226 20.1906 16.5488 20.2742 16.5971 20.3452C16.6454 20.4161 16.7136 20.4711 16.7931 20.5034C16.8726 20.5356 16.9599 20.5436 17.044 20.5264C17.128 20.5091 17.2051 20.4673 17.2655 20.4064C17.3258 20.3454 17.3668 20.2679 17.3832 20.1837C17.3997 20.0995 17.3908 20.0123 17.3578 19.9331C17.3247 19.8539 17.269 19.7862 17.1976 19.7387C17.1262 19.6911 17.0423 19.6657 16.9565 19.6657ZM16.9565 20.9708C16.8409 20.971 16.7301 21.0171 16.6483 21.0988C16.5666 21.1806 16.5205 21.2914 16.5203 21.407C16.5205 21.4931 16.5461 21.5772 16.594 21.6487C16.6419 21.7202 16.71 21.7759 16.7895 21.8088C16.869 21.8417 16.9565 21.8502 17.041 21.8334C17.1254 21.8166 17.2029 21.7751 17.2638 21.7142C17.3246 21.6534 17.3661 21.5759 17.3829 21.4914C17.3997 21.407 17.3912 21.3195 17.3583 21.24C17.3254 21.1604 17.2697 21.0924 17.1982 21.0445C17.1267 20.9966 17.0426 20.971 16.9565 20.9708ZM13.4754 18.3635C13.3601 18.3635 13.2495 18.4093 13.1679 18.4909C13.0864 18.5724 13.0406 18.683 13.0406 18.7983C13.0406 18.9136 13.0864 19.0242 13.1679 19.1058C13.2495 19.1873 13.3601 19.2331 13.4754 19.2331H13.4812C13.5381 19.233 13.5945 19.2217 13.647 19.1998C13.6996 19.1779 13.7473 19.1459 13.7875 19.1055C13.8276 19.0651 13.8593 19.0171 13.8809 18.9644C13.9024 18.9117 13.9134 18.8553 13.913 18.7983C13.9124 18.6827 13.866 18.572 13.784 18.4906C13.7019 18.4091 13.591 18.3634 13.4754 18.3635ZM9.9971 20.9722C9.94016 20.9723 9.88378 20.9836 9.83122 21.0055C9.77865 21.0274 9.73094 21.0595 9.6908 21.0999C9.65067 21.1403 9.61892 21.1882 9.59737 21.2409C9.57582 21.2936 9.56489 21.3501 9.56522 21.407C9.56493 21.4933 9.59024 21.5777 9.63793 21.6496C9.68563 21.7215 9.75357 21.7776 9.83317 21.8109C9.91277 21.8442 10.0005 21.8531 10.0851 21.8366C10.1698 21.82 10.2477 21.7787 10.3089 21.7179C10.3701 21.6571 10.4119 21.5795 10.429 21.495C10.4461 21.4104 10.4378 21.3227 10.405 21.2429C10.3723 21.163 10.3166 21.0947 10.245 21.0466C10.1734 20.9984 10.0892 20.9725 10.0029 20.9722H9.9971ZM9.9971 18.3635C9.88179 18.3635 9.7712 18.4093 9.68966 18.4909C9.60813 18.5724 9.56232 18.683 9.56232 18.7983C9.56232 18.9136 9.60813 19.0242 9.68966 19.1058C9.7712 19.1873 9.88179 19.2331 9.9971 19.2331H10.0029C10.0598 19.233 10.1162 19.2217 10.1688 19.1998C10.2213 19.1779 10.2691 19.1459 10.3092 19.1055C10.3493 19.0651 10.3811 19.0171 10.4026 18.9644C10.4242 18.9117 10.4351 18.8553 10.4348 18.7983C10.4341 18.6827 10.3877 18.572 10.3057 18.4906C10.2237 18.4091 10.1127 18.3634 9.9971 18.3635ZM11.7362 18.3635C11.6209 18.3635 11.5103 18.4093 11.4288 18.4909C11.3473 18.5724 11.3014 18.683 11.3014 18.7983C11.3014 18.9136 11.3473 19.0242 11.4288 19.1058C11.5103 19.1873 11.6209 19.2331 11.7362 19.2331H11.742C11.799 19.233 11.8553 19.2217 11.9079 19.1998C11.9605 19.1779 12.0082 19.1459 12.0483 19.1055C12.0885 19.0651 12.1202 19.0171 12.1418 18.9644C12.1633 18.9117 12.1742 18.8553 12.1739 18.7983C12.1733 18.6827 12.1269 18.572 12.0448 18.4906C11.9628 18.4091 11.8518 18.3634 11.7362 18.3635ZM11.7362 20.9722C11.6793 20.9723 11.6229 20.9836 11.5703 21.0055C11.5178 21.0274 11.4701 21.0595 11.4299 21.0999C11.3898 21.1403 11.358 21.1882 11.3365 21.2409C11.3149 21.2936 11.304 21.3501 11.3043 21.407C11.3041 21.4933 11.3294 21.5777 11.3771 21.6496C11.4248 21.7215 11.4927 21.7776 11.5723 21.8109C11.6519 21.8442 11.7396 21.8531 11.8243 21.8366C11.9089 21.82 11.9868 21.7787 12.048 21.7179C12.1092 21.6571 12.151 21.5795 12.1681 21.495C12.1853 21.4104 12.1769 21.3227 12.1442 21.2429C12.1114 21.163 12.0557 21.0947 11.9841 21.0466C11.9126 20.9984 11.8283 20.9725 11.742 20.9722H11.7362Z" fill="#CCD1D6"/>
</svg>
