<svg width="29" height="28" viewBox="0 0 29 28" fill="none" xmlns="http://www.w3.org/2000/svg">
<path d="M8.375 8.75C8.375 10.3745 9.02031 11.9324 10.169 13.081C11.3176 14.2297 12.8755 14.875 14.5 14.875C16.1245 14.875 17.6824 14.2297 18.831 13.081C19.9797 11.9324 20.625 10.3745 20.625 8.75C20.625 7.12555 19.9797 5.56763 18.831 4.41897C17.6824 3.27031 16.1245 2.625 14.5 2.625C12.8755 2.625 11.3176 3.27031 10.169 4.41897C9.02031 5.56763 8.375 7.12555 8.375 8.75ZM23.25 25.375H4.875C4.64294 25.375 4.42038 25.2828 4.25628 25.1187C4.09219 24.9546 4 24.7321 4 24.5V21.875C4 20.7147 4.46094 19.6019 5.28141 18.7814C6.10188 17.9609 7.21468 17.5 8.375 17.5H20.625C21.7853 17.5 22.8981 17.9609 23.7186 18.7814C24.5391 19.6019 25 20.7147 25 21.875V24.5C25 24.7321 24.9078 24.9546 24.7437 25.1187C24.5796 25.2828 24.3571 25.375 24.125 25.375H23.25Z" fill="#CCD1D6"/>
</svg>
