<svg width="21" height="20" viewBox="0 0 21 20" fill="none" xmlns="http://www.w3.org/2000/svg">
<g clip-path="url(#clip0_465_1447)">
<path d="M20.6199 18.5778L15.6457 13.6036C17.0013 11.9458 17.6677 9.83038 17.5073 7.69494C17.3468 5.5595 16.3718 3.56742 14.7837 2.13074C13.1957 0.694065 11.1162 -0.0772832 8.97544 -0.0237567C6.83465 0.0297698 4.79633 0.904076 3.28208 2.41832C1.76784 3.93256 0.893536 5.97088 0.84001 8.11168C0.786483 10.2525 1.55783 12.3319 2.99451 13.92C4.43118 15.508 6.42327 16.4831 8.55871 16.6435C10.6942 16.804 12.8096 16.1375 14.4674 14.782L19.4416 19.7561C19.5987 19.9079 19.8092 19.9919 20.0277 19.99C20.2462 19.9881 20.4553 19.9005 20.6098 19.746C20.7643 19.5915 20.8519 19.3825 20.8538 19.164C20.8557 18.9455 20.7717 18.735 20.6199 18.5778ZM9.19741 15.0003C7.87886 15.0003 6.58993 14.6093 5.4936 13.8768C4.39728 13.1442 3.54279 12.103 3.03821 10.8849C2.53362 9.66669 2.4016 8.32625 2.65884 7.03304C2.91607 5.73983 3.55101 4.55195 4.48336 3.61959C5.41571 2.68724 6.6036 2.05231 7.8968 1.79507C9.19001 1.53784 10.5305 1.66986 11.7486 2.17444C12.9668 2.67903 14.008 3.53351 14.7405 4.62984C15.4731 5.72617 15.8641 7.0151 15.8641 8.33364C15.8621 10.1011 15.1591 11.7957 13.9093 13.0455C12.6594 14.2953 10.9649 14.9983 9.19741 15.0003Z" fill="#3785FC"/>
</g>
<defs>
<clipPath id="clip0_465_1447">
<rect width="20" height="20" fill="white" transform="translate(0.864258)"/>
</clipPath>
</defs>
</svg>
